<?xml version="1.0" encoding="UTF-8"?>
<!DOCTYPE svg PUBLIC "-//W3C//DTD SVG 1.1//EN" "http://www.w3.org/Graphics/SVG/1.1/DTD/svg11.dtd">
<!-- Creator: CorelDRAW -->
<svg xmlns="http://www.w3.org/2000/svg" xml:space="preserve" width="170.97mm" height="81.24mm" version="1.1" style="shape-rendering:geometricPrecision; text-rendering:geometricPrecision; image-rendering:optimizeQuality; fill-rule:evenodd; clip-rule:evenodd"
viewBox="0 0 17097 8124"
 xmlns:xlink="http://www.w3.org/1999/xlink"
 xmlns:xodm="http://www.corel.com/coreldraw/odm/2003">
 <defs>
  <style type="text/css">
   <![CDATA[
    .fil7 {fill:#FEFEFE}
    .fil3 {fill:aqua}
    .fil5 {fill:#99FF00}
    .fil0 {fill:red}
    .fil2 {fill:#FF00F7}
    .fil4 {fill:#FF6600}
    .fil1 {fill:yellow}
    .fil6 {fill:#FEFEFE;fill-rule:nonzero}
   ]]>
  </style>
 </defs>
 <g id="Camada_x0020_1">
  <metadata id="CorelCorpID_0Corel-Layer"/>
  <g id="_2413754989280">
   <polygon class="fil0" points="232.97,5690.74 1085.31,5690.74 1085.31,5013.62 232.97,5013.62 "/>
   <polygon class="fil1" points="1170.55,5690.74 2022.89,5690.74 2022.89,5013.62 1170.55,5013.62 "/>
   <polygon class="fil2" points="2108.12,5690.74 2960.47,5690.74 2960.47,5013.62 2108.12,5013.62 "/>
   <polygon class="fil3" points="3045.7,5690.74 3898.04,5690.74 3898.04,5013.62 3045.7,5013.62 "/>
   <polygon class="fil4" points="3983.28,5690.74 4835.62,5690.74 4835.62,5013.62 3983.28,5013.62 "/>
   <polygon class="fil5" points="4920.85,5690.74 5773.2,5690.74 5773.2,5013.62 4920.85,5013.62 "/>
   <path class="fil6" d="M6005.89 5180.85l0 509.95 1044.75 0 0 -158.42 -823.71 0 0 -278.15c7.06,-20.88 17.5,-38.38 31.62,-52.5 14.13,-13.81 34.08,-25.48 60.49,-34.08l734.05 0 0 -160.26 -857.78 0c-14.12,0 -31.01,4.3 -51.27,13.21 -20.26,8.59 -39.91,19.64 -59.25,32.85 -19.34,13.2 -36.23,27.63 -51.27,43.28 -15.05,15.66 -24.26,31.63 -27.63,47.28l0 36.84zm1152.51 0l0 -36.84c3.38,-15.65 12.59,-31.62 27.63,-47.28 14.74,-15.65 31.93,-30.08 51.27,-43.28 19.34,-13.21 38.99,-24.26 59.25,-32.85 19.96,-8.91 37.15,-13.21 51.27,-13.21l856.87 0 0 552c-5.22,14.13 -15.05,28.56 -28.86,43.3 -14.13,15.04 -29.78,28.85 -47.28,42.05 -17.5,13.21 -35.61,24.26 -54.04,32.85 -18.42,8.91 -33.77,13.21 -46.05,13.21l-5.22 0 -864.84 0 0 -509.95zm838.13 -13.2l-525.29 0c-26.09,8.6 -46.36,20.27 -60.17,34.08 -14.12,14.12 -24.56,31.62 -31.63,52.5l0 278.15 512.1 0c36.84,-8.9 62.01,-19.34 76.13,-31.62 14.13,-11.98 23.64,-32.24 28.86,-60.18l0 -272.93zm315.92 -162.1l0 685.25 219.2 0 0 -539.73 405.25 0c7.06,1.85 17.5,6.76 31.62,14.74 14.13,7.68 27.64,17.19 40.84,27.63 13.2,10.74 25.48,23.64 36.84,38.68 11.36,14.74 18.73,32.24 22.41,51.58l-426.44 0 0 130.79 758.01 0 0 -50.05c-3.69,-23.02 -10.75,-47.89 -21.18,-75.21 -10.44,-27.32 -34.08,-62.02 -70.93,-104.39 -15.96,-20.87 -36.22,-41.75 -60.78,-62.01 -24.56,-19.96 -51.27,-38.69 -80.13,-55.26 -28.86,-16.89 -59.56,-30.71 -92.1,-42.37 -32.55,-11.36 -66.32,-17.81 -101.32,-19.65l-661.29 0zm2283.22 685.25l-1026.94 0 0 -145.53 807.74 0 0 -537.88 219.2 0 0 683.41zm-901.37 -357.67c-24.57,-22.72 -47.59,-48.2 -69.7,-76.14 -21.8,-28.24 -41.75,-57.1 -59.25,-86.88 -17.5,-29.78 -31.62,-58.64 -42.06,-86.58 -10.44,-27.94 -15.66,-53.42 -15.66,-76.14l260.35 0c19.34,49.12 35.3,88.11 47.58,116.97 12.28,29.17 21.8,47.9 28.86,56.8 8.6,8.6 17.5,18.73 26.4,30.09 8.6,11.36 17.81,23.02 27.63,34.38 9.52,11.36 19.65,20.57 30.09,27.63 10.44,7.06 21.19,10.44 31.62,10.44l305.17 0 0 130.79 -420.91 0c-66.62,-20.88 -116.66,-48.2 -150.12,-81.36zm1639.42 208.46l0 149.21 918.27 0c26.4,0 50.96,-6.45 73.68,-19.65 22.72,-13.2 42.67,-29.78 59.25,-50.05 16.58,-19.95 29.78,-42.36 39.61,-66.92 9.51,-24.56 14.43,-49.13 14.43,-73.38 0,-15.96 -3.69,-35 -10.75,-58.02 -6.75,-22.72 -15.96,-44.52 -27.63,-65.4 -11.36,-21.18 -25.79,-38.68 -43.29,-52.8 -17.5,-13.82 -35.92,-20.88 -55.26,-20.88l-655.16 0c-7.06,-12.28 -10.74,-21.18 -10.74,-26.4 0,-7.06 1.53,-13.51 3.99,-18.73 2.76,-5.22 6.75,-12.28 11.97,-21.18 10.44,-14.13 23.34,-28.86 38.07,-43.9 15.04,-15.05 22.41,-22.42 22.41,-22.42l641.96 0 0 -145.52 -641.96 0c-56.18,0 -106.53,11.36 -151.35,34.39 -44.83,22.71 -83.2,53.11 -115.75,90.87 -32.54,37.76 -57.41,81.36 -74.91,130.79 -17.49,49.12 -26.4,100.08 -26.4,152.89l778.88 0c3.69,0 8.91,8.29 15.97,25.17 6.75,16.89 10.44,30.4 10.44,41.14 0,8.6 -3.69,21.19 -10.44,36.84 -7.06,15.97 -14.12,23.95 -21.18,23.95l-784.11 0zm2049.29 -390.52l0 -145.52 -838.75 0 0 145.52 305.17 0 0 539.73 228.41 0 0 -476.48 0 -63.25 305.17 0zm111.75 29.78l0 -36.84c3.38,-15.65 12.58,-31.62 27.63,-47.28 14.74,-15.65 31.93,-30.08 51.27,-43.28 19.34,-13.21 38.99,-24.26 59.25,-32.85 19.96,-8.91 37.15,-13.21 51.27,-13.21l856.87 0 0 552c-5.22,14.13 -15.05,28.56 -28.86,43.3 -14.13,15.04 -29.78,28.85 -47.28,42.05 -17.5,13.21 -35.62,24.26 -54.04,32.85 -18.42,8.91 -33.77,13.21 -46.05,13.21l-5.22 0 -864.84 0 0 -509.95zm838.13 -13.2l-525.29 0c-26.1,8.6 -46.36,20.27 -60.17,34.08 -14.13,14.12 -24.56,31.62 -31.63,52.5l0 278.15 512.1 0c36.84,-8.9 62.01,-19.34 76.13,-31.62 14.13,-11.98 23.64,-32.24 28.86,-60.18l0 -272.93zm315.92 -162.1l0 685.25 215.52 0 0 -276.31 418.45 0c12.28,0 23.33,3.37 32.85,10.43 9.52,7.07 18.73,16.28 27.63,27.64 8.9,11.36 18.11,23.02 27.63,34.38 9.52,11.36 18.73,21.49 27.63,30.09 14.12,19.34 39.61,77.36 76.45,173.77l260.34 0c0,-22.72 -5.22,-48.2 -15.66,-76.14 -10.74,-28.25 -24.56,-57.11 -42.06,-86.89 -17.5,-29.78 -37.45,-58.63 -59.25,-86.88 -22.11,-27.94 -45.13,-53.42 -69.69,-76.14l186.66 0c-3.38,-22.72 -11.36,-47.89 -23.64,-75.22 -12.28,-27.32 -35.92,-62.01 -70.92,-104.38 -17.5,-19.34 -37.76,-39.6 -60.79,-60.79 -22.72,-21.18 -48.5,-39.91 -77.36,-56.79 -29.17,-16.58 -59.87,-30.71 -92.11,-42.06 -32.54,-11.67 -66.31,-18.12 -101.31,-19.96l-660.37 0zm215.52 278.15l0 -132.63 408.01 0c10.44,3.38 20.88,7.99 31.31,13.2 10.75,5.22 23.95,15.97 39.61,31.93 15.66,15.97 27.94,31.93 36.84,47.59 8.9,15.96 15.04,29.17 18.42,39.91l-534.19 0zm1119.04 81.05l34.08 0c-24.56,22.72 -48.2,48.82 -70.92,77.68 -22.72,28.85 -42.98,57.71 -60.48,86.57 -17.5,28.86 -31.31,57.41 -40.83,85.66 -9.52,27.94 -14.43,53.42 -14.43,76.14l1100.01 0 0 -145.53 -760.46 -2.76c35,-67.85 72.76,-110.52 112.98,-128.02l544.63 0 0 -130.79 -655.15 0c3.68,-17.81 8.9,-32.85 15.96,-45.13 6.76,-12.28 18.42,-26.4 34.08,-42.37 15.66,-15.96 28.86,-26.71 39.61,-31.93 10.43,-5.21 20.87,-9.82 31.31,-13.2l613.4 0 0 -145.52 -650.24 0c-33.16,1.84 -66.62,8.29 -99.78,19.96 -33.46,11.35 -65.09,25.48 -94.86,42.06 -29.79,16.88 -56.19,35.61 -78.91,56.79 -22.71,21.19 -42.06,41.45 -58.02,60.79 -35,42.37 -58.64,77.06 -70.92,104.38 -12.28,27.33 -20.26,52.5 -23.64,75.22l152.58 0z"/>
   <path class="fil7" d="M4320.59 2098.61l1229.73 0 0 137.02c0,44.08 -36.06,80.16 -80.14,80.16l-1229.75 0 0 -137.04c0,-44.08 36.06,-80.14 80.16,-80.14zm-4155.76 892.25l0 1398.86 2865.9 0 0 -434.57 -2259.53 0 0 -763c19.36,-57.27 48,-105.28 86.72,-144.02 38.74,-37.89 93.5,-69.9 165.92,-93.47l2013.63 0 0 -439.61 -2353.02 0c-38.75,0 -85.07,11.78 -140.65,36.2 -55.58,23.59 -109.48,53.9 -162.52,90.12 -53.07,36.2 -99.39,75.8 -140.65,118.75 -41.28,42.94 -66.53,86.75 -75.8,129.69l0 101.05zm3161.51 0l0 -101.05c9.27,-42.94 34.54,-86.75 75.8,-129.69 40.43,-42.95 87.58,-82.55 140.65,-118.75 53.04,-36.22 106.94,-66.53 162.52,-90.12 54.76,-24.42 101.91,-36.2 140.65,-36.2l2350.51 0 0 1514.21c-14.32,38.74 -41.26,78.34 -79.17,118.75 -38.74,41.28 -81.69,79.17 -129.7,115.37 -48,36.22 -97.7,66.53 -148.22,90.12 -50.53,24.42 -92.64,36.22 -126.32,36.22l-14.33 0 -2372.39 0 0 -1398.86zm2299.14 -36.2l-1440.96 0c-71.59,23.57 -127.18,55.58 -165.06,93.47 -38.75,38.74 -67.39,86.75 -86.75,144.02l0 763 1404.73 0c101.07,-24.42 170.12,-53.04 208.86,-86.73 38.75,-32.85 64.85,-88.43 79.18,-165.09l0 -748.67zm866.58 -444.67l0 1879.73 601.31 0 0 -1480.55 1111.67 0c19.36,5.06 48.01,18.53 86.75,40.43 38.74,21.05 75.8,47.15 112,75.8 36.23,29.48 69.91,64.85 101.07,106.11 31.17,40.43 51.36,88.43 61.48,141.48l-1169.78 0 0 358.77 2079.31 0 0 -137.27c-10.09,-63.16 -29.48,-131.38 -58.1,-206.33 -28.62,-74.96 -93.47,-170.12 -194.54,-286.35 -43.81,-57.27 -99.37,-114.54 -166.76,-170.12 -67.36,-54.73 -140.64,-106.11 -219.79,-151.58 -79.17,-46.32 -163.4,-84.23 -252.67,-116.22 -89.26,-31.17 -181.9,-48.84 -277.92,-53.9l-1814.03 0zm3307.22 5.06l0 1874.67 606.36 0 0 -1874.67 -606.36 0zm1508.32 1121.77l0 752.9 -576.03 0 0 -1485.61c19.36,-47.98 49.69,-95.99 90.1,-143.99 41.28,-48.01 87.6,-90.12 140.64,-126.33 53.07,-36.22 106.11,-64.84 158.35,-85.91 53.04,-21.9 101.05,-32.83 144.85,-32.83l2351.34 0 0 1874.67 -606.36 0 0 -752.9 -1702.89 0zm1702.89 -358.77l0 -323.39 -1407.28 0c-101.07,23.57 -170.12,53.04 -208.86,85.9 -38.74,33.68 -67.37,84.2 -86.75,151.59l0 85.9 1702.89 0zm404.24 707.43l2635.15 0c19.36,-5.06 38.74,-28.65 58.1,-72.45 18.53,-42.94 28.65,-76.63 28.65,-101.05 0,-28.62 -10.12,-65.7 -28.65,-112 -19.36,-45.48 -33.68,-68.22 -43.78,-68.22l-2136.58 0c0,-144.85 24.4,-284.66 72.42,-419.39 47.99,-135.61 116.21,-255.19 205.48,-358.78 89.29,-103.59 194.54,-186.97 317.51,-249.27 122.95,-63.17 261.06,-94.33 415.17,-94.33l1760.99 0 0 399.18 -1760.99 0c0,0 -20.21,20.22 -61.47,61.48 -40.41,41.26 -75.78,81.69 -104.43,120.43 -14.32,24.42 -25.27,43.8 -32.85,58.12 -6.72,14.3 -10.95,32 -10.95,51.36 0,9.26 10.12,33.71 29.48,72.43l1797.21 0c53.05,0 103.57,19.38 151.58,57.27 48,38.74 87.6,86.75 118.74,144.85 32.02,57.27 57.27,117.06 75.8,179.39 19.38,63.16 29.48,115.37 29.48,159.17 0,66.53 -13.47,133.9 -39.57,201.29 -26.96,67.37 -63.17,128.84 -108.65,183.57 -45.47,55.61 -100.22,101.07 -162.53,137.3 -62.33,36.2 -129.69,53.89 -202.14,53.89l-3003.17 0 0 -404.24z"/>
   <path class="fil7" d="M3214.32 1620.22l0 -1278.96c-16.68,-41.3 -42.06,-82.63 -77.58,-123.96 -34.81,-41.33 -74.69,-77.59 -118.18,-108.75 -43.5,-31.19 -87.73,-55.83 -133.41,-73.97 -44.95,-18.85 -88.45,-28.26 -129.78,-28.26l-850.46 0 -0.71 247.95c-94.99,-90.63 -174.72,-155.15 -238.53,-192.12 -64.53,-36.99 -127.6,-55.83 -189.24,-55.83l-1315.91 0 0 1613.9 522.02 0 0 -1235.44 502.43 0c87.01,21.02 147.19,45.67 179.81,74.66 33.35,29.02 57.99,72.52 74.68,130.51l0 1030.27 495.92 0 0 -1235.44 528.54 0c87,21.02 146.44,45.67 179.8,74.66 33.35,29.02 57.99,72.52 74.68,130.51l0 1030.27 495.92 0zm748.21 -648.17l0 648.17 -495.9 0 0 -1278.96c16.67,-41.3 42.78,-82.63 77.56,-123.96 35.55,-41.33 75.42,-77.59 121.09,-108.75 45.68,-31.19 91.34,-55.83 136.31,-73.97 45.67,-18.85 87,-28.26 124.7,-28.26l2024.27 0 0 1613.9 -522.02 0 0 -648.17 -1466.01 0zm1466.01 -308.87l0 -278.4 -1211.51 0c-87.02,20.29 -146.46,45.67 -179.82,73.95 -33.35,28.99 -57.99,72.49 -74.68,130.51l0 73.94 1466.01 0zm348.01 609.03l2268.6 0c16.66,-4.35 33.35,-24.66 50.02,-62.37 15.95,-36.97 24.66,-65.97 24.66,-86.99 0,-24.64 -8.71,-56.57 -24.66,-96.42 -16.67,-39.16 -29,-58.73 -37.69,-58.73l-1839.4 0c0,-124.71 21.02,-245.07 62.37,-361.06 41.31,-116.75 100.04,-219.69 176.89,-308.87 76.87,-89.18 167.48,-160.96 273.35,-214.6 105.85,-54.38 224.74,-81.21 357.42,-81.21l1516.03 0 0 343.66 -1516.03 0c0,0 -17.4,17.4 -52.93,52.92 -34.8,35.53 -65.23,70.33 -89.89,103.68 -12.33,21.03 -21.76,37.71 -28.28,50.04 -5.79,12.31 -9.43,27.55 -9.43,44.22 0,7.97 8.71,29.01 25.38,62.35l1547.21 0c45.67,0 89.16,16.68 130.49,49.3 41.33,33.35 75.42,74.68 102.23,124.7 27.56,49.31 49.3,100.78 65.25,154.44 16.69,54.37 25.38,99.32 25.38,137.03 0,57.28 -11.59,115.27 -34.07,173.29 -23.21,57.99 -54.37,110.92 -93.53,158.03 -39.15,47.88 -86.28,87.02 -139.92,118.2 -53.66,31.17 -111.66,46.4 -174.03,46.4l-2585.42 0 0 -348.01zm5249.9 348.01l-526.37 0 0 -1119.45c-33.35,-78.3 -109.49,-130.49 -229.83,-155.15l-1230.37 0 0 -343.66 1491.37 0c44.96,0 97.15,14.5 154.43,43.5 58.02,29 111.66,64.54 160.96,105.85 50.02,41.33 92.08,88.46 126.87,139.93 35.54,52.21 52.94,100.78 52.94,146.46l0 1182.52zm580.01 -769.99l-360.34 0c7.98,-53.64 26.83,-113.1 55.83,-177.62 29,-64.52 84.82,-146.46 167.48,-246.5 37.71,-45.68 83.37,-93.54 137.03,-143.56 53.64,-50.04 116.01,-94.25 186.34,-134.13 70.33,-39.16 145.01,-72.51 224.03,-99.34 78.3,-27.54 157.33,-42.76 235.64,-47.12l1535.6 0 0 343.66 -1448.61 0c-24.64,7.98 -49.31,18.85 -73.95,31.19 -25.37,12.31 -56.56,37.68 -93.53,75.39 -36.98,37.69 -64.52,71.05 -80.47,100.06 -16.69,29 -29,64.52 -37.71,106.57l1547.19 0 0 308.87 -1286.17 0c-45.69,0 -91.37,29.71 -136.32,89.89 -45.66,59.45 -81.2,132.68 -105.85,218.96l1771.24 0 0 343.67 -2597.77 0c0,-53.66 11.6,-113.84 34.09,-179.81 22.48,-66.71 55.09,-134.13 96.42,-202.29 41.33,-68.14 89.18,-136.29 142.82,-204.45 53.66,-68.16 109.49,-129.78 167.48,-183.44l-80.47 0zm2478.13 -848.27l0 1618.26 508.97 0 0 -1274.6 961.39 0c24.64,7.98 50.02,18.85 74.66,31.19 24.67,12.31 55.83,37.68 92.8,75.39 37.71,37.69 66.71,75.4 87.02,112.37 21.02,37.71 35.52,68.88 43.49,94.26l-993.99 0 0 308.87 720.66 0c29,0 55.11,7.97 77.59,24.64 23.19,16.69 44.95,38.42 65.23,65.25 21.05,26.83 42.78,54.38 65.26,81.21 23.21,26.83 44.95,50.75 65.25,71.04 33.36,45.68 93.54,182.72 180.53,410.38l615.55 0c0,-53.66 -13.04,-113.84 -37.7,-179.81 -24.65,-66.71 -58,-134.87 -99.33,-205.19 -41.33,-70.33 -87.73,-138.47 -139.93,-205.17 -51.48,-65.97 -106.57,-126.16 -164.58,-179.82l441.54 0c-8.71,-53.64 -27.54,-113.1 -56.54,-177.62 -29.02,-64.52 -84.84,-146.46 -167.48,-246.5 -41.33,-45.68 -89.18,-93.54 -142.84,-143.56 -53.66,-50.04 -115.28,-94.25 -183.43,-134.13 -68.14,-39.16 -140.66,-72.51 -217.51,-99.34 -76.85,-27.54 -156.6,-42.76 -239.26,-47.12l-1557.35 0z"/>
   <polygon class="fil6" points="173.52,7767.56 305.36,7767.56 305.36,7726.61 -2.64,7726.61 -2.64,7767.56 129.2,7767.56 129.2,8119.32 173.52,8119.32 "/>
   <path id="_1" class="fil6" d="M713.78 8119.32l-120.62 -160.36c15.34,-2.62 29.55,-7.1 42.64,-13.46 13.09,-6.36 24.4,-14.31 33.94,-23.85 9.54,-9.53 16.93,-20.75 22.16,-33.66 5.24,-12.9 7.86,-27.58 7.86,-44.04 0,-17.58 -3.37,-33.66 -10.1,-48.06 -6.73,-14.4 -16.27,-26.74 -28.61,-37.03 -12.35,-10.28 -27.21,-18.23 -44.61,-23.84 -17.39,-5.61 -36.93,-8.41 -58.62,-8.41l-168.87 0 0 392.71 44.32 0 0 -152.6 112.21 0 113.88 152.6 54.42 0zm-58.34 -273.5c0,12.72 -2.53,24.22 -7.58,34.32 -5.05,10.19 -12.06,18.7 -21.13,25.62 -8.98,6.92 -19.64,12.34 -32.07,16.08 -12.34,3.74 -25.81,5.61 -40.49,5.61l-120.9 0 0 -159.89 121.46 0c31.89,0 56.67,6.83 74.24,20.57 17.68,13.65 26.47,32.91 26.47,57.69z"/>
   <path id="_2" class="fil6" d="M981.39 7723.8l-41.51 0 -178.97 395.52 45.44 0 46.57 -103.79 213.75 0 46 103.79 47.69 0 -178.97 -395.52zm67.88 252.46l-178.96 0 89.76 -200.28 89.2 200.28z"/>
   <polygon id="_3" class="fil6" points="1526.71,8041.34 1279.3,7726.61 1237.78,7726.61 1237.78,8119.32 1280.98,8119.32 1280.98,7797.29 1534.56,8119.32 1569.9,8119.32 1569.9,7726.61 1526.71,7726.61 "/>
   <path id="_4" class="fil6" d="M1715.21 7824.32c0,-8.98 1.97,-17.39 5.89,-25.25 3.93,-7.85 9.54,-14.68 16.83,-20.29 7.3,-5.61 16.09,-10.1 26.37,-13.46 10.29,-3.37 21.79,-5.05 34.51,-5.05 20.19,0 39.55,3.36 58.06,10.1 18.51,6.73 36.93,17.57 55.26,32.53l25.81 -34.22c-20.2,-15.89 -41.05,-27.86 -62.56,-35.81 -21.5,-7.95 -46.65,-11.87 -75.45,-11.87 -18.7,0 -35.91,2.71 -51.62,8.13 -15.71,5.42 -29.36,12.9 -40.95,22.53 -11.6,9.54 -20.57,20.86 -26.93,33.95 -6.36,13.09 -9.54,27.58 -9.54,43.29 0,16.46 2.62,30.67 7.86,42.64 5.23,12.06 13.37,22.53 24.21,31.51 10.85,8.97 24.6,16.64 41.33,23 16.65,6.36 36.28,12.06 58.72,16.92 20.67,4.49 37.59,9.17 50.96,14.03 13.28,4.86 23.66,10.28 31.14,16.27 7.57,5.98 12.81,12.62 15.8,19.91 2.99,7.39 4.49,15.71 4.49,25.06 0,20.2 -7.95,36.47 -23.84,48.91 -15.9,12.34 -37.13,18.51 -63.68,18.51 -27.3,0 -51.43,-4.58 -72.37,-13.75 -20.95,-9.16 -41.7,-23.09 -62.27,-41.79l-27.49 32.54c23.56,21.22 48.34,36.93 74.33,47.03 25.99,10.19 54.7,15.24 86.12,15.24 19.45,0 37.4,-2.62 53.85,-7.85 16.46,-5.24 30.49,-12.72 42.17,-22.54 11.69,-9.72 20.86,-21.5 27.49,-35.34 6.64,-13.84 10.01,-29.27 10.01,-46.1 0,-30.29 -10.38,-54.14 -31.14,-71.34 -20.75,-17.21 -53.01,-30.77 -96.77,-40.49 -21.7,-4.49 -39.46,-9.26 -53.3,-14.31 -13.84,-5.04 -24.68,-10.66 -32.54,-16.83 -7.85,-6.17 -13.28,-12.99 -16.27,-20.57 -2.99,-7.48 -4.49,-15.89 -4.49,-25.24z"/>
   <polygon id="_5" class="fil6" points="2322.23,7726.61 2040.04,7726.61 2040.04,8119.32 2084.36,8119.32 2084.36,7948.21 2296.99,7948.21 2296.99,7907.82 2084.36,7907.82 2084.36,7767.56 2322.23,7767.56 "/>
   <path id="_6" class="fil6" d="M2782.83 7922.4c0,-27.3 -4.77,-53.2 -14.31,-77.7 -9.54,-24.5 -23.09,-46 -40.67,-64.52 -17.58,-18.51 -38.62,-33.19 -63.12,-44.04 -24.49,-10.84 -51.7,-16.27 -81.63,-16.27 -29.92,0 -57.22,5.52 -81.9,16.55 -24.69,11.04 -45.82,25.9 -63.4,44.6 -17.58,18.71 -31.23,40.3 -40.95,64.8 -9.73,24.5 -14.59,50.4 -14.59,77.7 0,27.31 4.77,53.21 14.31,77.71 9.53,24.49 23.09,46 40.67,64.51 17.58,18.52 38.62,33.2 63.11,44.04 24.5,10.85 51.71,16.27 81.63,16.27 29.92,0 57.23,-5.51 81.91,-16.55 24.69,-11.03 45.82,-25.9 63.4,-44.6 17.58,-18.7 31.23,-40.3 40.95,-64.8 9.73,-24.49 14.59,-50.4 14.59,-77.7zm-46.01 1.12c0,22.44 -3.83,43.48 -11.5,63.12 -7.66,19.63 -18.23,36.75 -31.69,51.33 -13.47,14.59 -29.65,26.09 -48.53,34.5 -18.89,8.42 -39.55,12.63 -62,12.63 -22.44,0 -43.1,-4.3 -61.99,-12.91 -18.89,-8.6 -35.25,-20.19 -49.09,-34.78 -13.84,-14.59 -24.59,-31.79 -32.26,-51.61 -7.66,-19.83 -11.5,-40.96 -11.5,-63.4 0,-22.44 3.84,-43.48 11.5,-63.11 7.67,-19.64 18.24,-36.75 31.7,-51.34 13.47,-14.58 29.64,-26.08 48.53,-34.5 18.89,-8.41 39.55,-12.62 61.99,-12.62 22.44,0 43.11,4.3 62,12.9 18.88,8.6 35.25,20.2 49.08,34.78 13.84,14.59 24.6,31.8 32.26,51.62 7.67,19.82 11.5,40.95 11.5,63.39z"/>
   <path id="_7" class="fil6" d="M3201.35 8119.32l-120.62 -160.36c15.34,-2.62 29.55,-7.1 42.64,-13.46 13.09,-6.36 24.4,-14.31 33.94,-23.85 9.54,-9.53 16.93,-20.75 22.16,-33.66 5.24,-12.9 7.86,-27.58 7.86,-44.04 0,-17.58 -3.37,-33.66 -10.1,-48.06 -6.73,-14.4 -16.27,-26.74 -28.61,-37.03 -12.35,-10.28 -27.21,-18.23 -44.61,-23.84 -17.39,-5.61 -36.93,-8.41 -58.62,-8.41l-168.87 0 0 392.71 44.32 0 0 -152.6 112.21 0 113.88 152.6 54.42 0zm-58.34 -273.5c0,12.72 -2.53,24.22 -7.58,34.32 -5.05,10.19 -12.06,18.7 -21.13,25.62 -8.98,6.92 -19.64,12.34 -32.07,16.08 -12.34,3.74 -25.81,5.61 -40.49,5.61l-120.9 0 0 -159.89 121.46 0c31.89,0 56.67,6.83 74.24,20.57 17.68,13.65 26.47,32.91 26.47,57.69z"/>
   <polygon id="_8" class="fil6" points="3613.7,7801.22 3613.7,8119.32 3658.02,8119.32 3658.02,7726.61 3613.14,7726.61 3470.08,7940.92 3327.02,7726.61 3282.14,7726.61 3282.14,8119.32 3325.34,8119.32 3325.34,7801.78 3468.4,8011.6 3470.64,8011.6 "/>
   <path id="_9" class="fil6" d="M3955.93 7723.8l-41.51 0 -178.97 395.52 45.44 0 46.57 -103.79 213.75 0 46 103.79 47.69 0 -178.97 -395.52zm67.88 252.46l-178.96 0 89.76 -200.28 89.2 200.28z"/>
   <polygon id="_10" class="fil6" points="4501.25,8041.34 4253.84,7726.61 4212.32,7726.61 4212.32,8119.32 4255.52,8119.32 4255.52,7797.29 4509.1,8119.32 4544.44,8119.32 4544.44,7726.61 4501.25,7726.61 "/>
   <path id="_11" class="fil6" d="M5000.56 7922.4c0,-27.68 -5.05,-53.48 -15.15,-77.42 -10.1,-23.94 -24.4,-44.69 -42.92,-62.27 -18.51,-17.58 -40.58,-31.33 -66.2,-41.24 -25.62,-9.91 -53.76,-14.86 -84.43,-14.86l-136.33 0 0 392.71 136.33 0c30.67,0 58.81,-5.05 84.43,-15.15 25.62,-10.1 47.69,-23.93 66.2,-41.51 18.52,-17.58 32.82,-38.43 42.92,-62.56 10.1,-24.12 15.15,-50.02 15.15,-77.7zm-46.01 1.12c0,22.07 -3.83,42.45 -11.5,61.16 -7.66,18.7 -18.51,35.06 -32.54,49.08 -14.02,14.03 -31.13,24.97 -51.33,32.82 -20.2,7.86 -42.64,11.79 -67.32,11.79l-92.01 0 0 -310.81 92.01 0c24.68,0 47.12,4.02 67.32,12.06 20.2,8.04 37.31,19.08 51.33,33.1 14.03,14.03 24.88,30.58 32.54,49.65 7.67,19.08 11.5,39.46 11.5,61.15z"/>
   <path id="_12" class="fil6" d="M5477.43 7922.4c0,-27.3 -4.77,-53.2 -14.31,-77.7 -9.54,-24.5 -23.09,-46 -40.67,-64.52 -17.58,-18.51 -38.62,-33.19 -63.12,-44.04 -24.49,-10.84 -51.7,-16.27 -81.63,-16.27 -29.92,0 -57.22,5.52 -81.9,16.55 -24.69,11.04 -45.82,25.9 -63.4,44.6 -17.58,18.71 -31.23,40.3 -40.95,64.8 -9.73,24.5 -14.59,50.4 -14.59,77.7 0,27.31 4.77,53.21 14.31,77.71 9.53,24.49 23.09,46 40.67,64.51 17.58,18.52 38.62,33.2 63.11,44.04 24.5,10.85 51.71,16.27 81.63,16.27 29.92,0 57.23,-5.51 81.91,-16.55 24.69,-11.03 45.82,-25.9 63.4,-44.6 17.58,-18.7 31.23,-40.3 40.95,-64.8 9.73,-24.49 14.59,-50.4 14.59,-77.7zm-46.01 1.12c0,22.44 -3.83,43.48 -11.5,63.12 -7.66,19.63 -18.23,36.75 -31.69,51.33 -13.47,14.59 -29.65,26.09 -48.53,34.5 -18.89,8.42 -39.55,12.63 -62,12.63 -22.44,0 -43.1,-4.3 -61.99,-12.91 -18.89,-8.6 -35.25,-20.19 -49.09,-34.78 -13.84,-14.59 -24.59,-31.79 -32.26,-51.61 -7.66,-19.83 -11.5,-40.96 -11.5,-63.4 0,-22.44 3.84,-43.48 11.5,-63.11 7.67,-19.64 18.24,-36.75 31.7,-51.34 13.47,-14.58 29.64,-26.08 48.53,-34.5 18.89,-8.41 39.55,-12.62 61.99,-12.62 22.44,0 43.11,4.3 62,12.9 18.88,8.6 35.25,20.2 49.08,34.78 13.84,14.59 24.6,31.8 32.26,51.62 7.67,19.82 11.5,40.95 11.5,63.39z"/>
   <path id="_13" class="fil6" d="M5926.25 7723.8l-41.51 0 -178.97 395.52 45.44 0 46.57 -103.79 213.75 0 46 103.79 47.69 0 -178.97 -395.52zm67.88 252.46l-178.96 0 89.76 -200.28 89.2 200.28z"/>
   <path id="_14" class="fil6" d="M6385.17 7824.32c0,-8.98 1.97,-17.39 5.89,-25.25 3.93,-7.85 9.54,-14.68 16.83,-20.29 7.3,-5.61 16.09,-10.1 26.37,-13.46 10.29,-3.37 21.79,-5.05 34.51,-5.05 20.19,0 39.55,3.36 58.06,10.1 18.51,6.73 36.93,17.57 55.26,32.53l25.81 -34.22c-20.2,-15.89 -41.05,-27.86 -62.56,-35.81 -21.5,-7.95 -46.65,-11.87 -75.45,-11.87 -18.7,0 -35.91,2.71 -51.62,8.13 -15.71,5.42 -29.36,12.9 -40.95,22.53 -11.6,9.54 -20.57,20.86 -26.93,33.95 -6.36,13.09 -9.54,27.58 -9.54,43.29 0,16.46 2.62,30.67 7.86,42.64 5.23,12.06 13.37,22.53 24.21,31.51 10.85,8.97 24.6,16.64 41.33,23 16.65,6.36 36.28,12.06 58.72,16.92 20.67,4.49 37.59,9.17 50.96,14.03 13.28,4.86 23.66,10.28 31.14,16.27 7.57,5.98 12.81,12.62 15.8,19.91 2.99,7.39 4.49,15.71 4.49,25.06 0,20.2 -7.95,36.47 -23.84,48.91 -15.9,12.34 -37.13,18.51 -63.68,18.51 -27.3,0 -51.43,-4.58 -72.37,-13.75 -20.95,-9.16 -41.7,-23.09 -62.27,-41.79l-27.49 32.54c23.56,21.22 48.34,36.93 74.33,47.03 25.99,10.19 54.7,15.24 86.12,15.24 19.45,0 37.4,-2.62 53.85,-7.85 16.46,-5.24 30.49,-12.72 42.17,-22.54 11.69,-9.72 20.86,-21.5 27.49,-35.34 6.64,-13.84 10.01,-29.27 10.01,-46.1 0,-30.29 -10.38,-54.14 -31.14,-71.34 -20.75,-17.21 -53.01,-30.77 -96.77,-40.49 -21.7,-4.49 -39.46,-9.26 -53.3,-14.31 -13.84,-5.04 -24.68,-10.66 -32.54,-16.83 -7.85,-6.17 -13.28,-12.99 -16.27,-20.57 -2.99,-7.48 -4.49,-15.89 -4.49,-25.24z"/>
   <path id="_15" class="fil6" d="M7030.9 7726.61l-44.32 0 0 228.33c0,43.01 -10.66,75.36 -31.97,97.06 -21.32,21.69 -50.12,32.54 -86.4,32.54 -37.78,0 -67.23,-11.41 -88.36,-34.23 -21.13,-22.81 -31.7,-55.54 -31.7,-98.17l0 -225.53 -44.32 0 0 228.33c0,27.68 3.93,52.18 11.78,73.49 7.86,21.32 18.98,39.18 33.38,53.58 14.4,14.4 31.61,25.25 51.62,32.54 20.01,7.29 42.17,10.94 66.48,10.94 24.68,0 47.03,-3.65 67.04,-10.94 20.01,-7.29 37.21,-18.23 51.61,-32.82 14.4,-14.58 25.53,-32.72 33.38,-54.42 7.86,-21.69 11.78,-46.94 11.78,-75.73l0 -224.97z"/>
   <path id="_16" class="fil6" d="M7308.6 7723.8l-41.51 0 -178.97 395.52 45.44 0 46.57 -103.79 213.75 0 46 103.79 47.69 0 -178.97 -395.52zm67.88 252.46l-178.96 0 89.76 -200.28 89.2 200.28z"/>
   <polygon id="_17" class="fil6" points="7888.7,8064.9 7749.01,7726.61 7699.64,7726.61 7868.51,8122.13 7907.78,8122.13 8076.65,7726.61 8028.96,7726.61 "/>
   <polygon id="_18" class="fil6" points="8158,7726.61 8158,8119.32 8202.32,8119.32 8202.32,7726.61 "/>
   <path id="_19" class="fil6" d="M8351.55 7824.32c0,-8.98 1.97,-17.39 5.89,-25.25 3.93,-7.85 9.54,-14.68 16.83,-20.29 7.3,-5.61 16.09,-10.1 26.37,-13.46 10.29,-3.37 21.79,-5.05 34.51,-5.05 20.19,0 39.55,3.36 58.06,10.1 18.51,6.73 36.93,17.57 55.26,32.53l25.81 -34.22c-20.2,-15.89 -41.05,-27.86 -62.56,-35.81 -21.5,-7.95 -46.65,-11.87 -75.45,-11.87 -18.7,0 -35.91,2.71 -51.62,8.13 -15.71,5.42 -29.36,12.9 -40.95,22.53 -11.6,9.54 -20.57,20.86 -26.93,33.95 -6.36,13.09 -9.54,27.58 -9.54,43.29 0,16.46 2.62,30.67 7.86,42.64 5.23,12.06 13.37,22.53 24.21,31.51 10.85,8.97 24.6,16.64 41.33,23 16.65,6.36 36.28,12.06 58.72,16.92 20.67,4.49 37.59,9.17 50.96,14.03 13.28,4.86 23.66,10.28 31.14,16.27 7.57,5.98 12.81,12.62 15.8,19.91 2.99,7.39 4.49,15.71 4.49,25.06 0,20.2 -7.95,36.47 -23.84,48.91 -15.9,12.34 -37.13,18.51 -63.68,18.51 -27.3,0 -51.43,-4.58 -72.37,-13.75 -20.95,-9.16 -41.7,-23.09 -62.27,-41.79l-27.49 32.54c23.56,21.22 48.34,36.93 74.33,47.03 25.99,10.19 54.7,15.24 86.12,15.24 19.45,0 37.4,-2.62 53.85,-7.85 16.46,-5.24 30.49,-12.72 42.17,-22.54 11.69,-9.72 20.86,-21.5 27.49,-35.34 6.64,-13.84 10.01,-29.27 10.01,-46.1 0,-30.29 -10.38,-54.14 -31.14,-71.34 -20.75,-17.21 -53.01,-30.77 -96.77,-40.49 -21.7,-4.49 -39.46,-9.26 -53.3,-14.31 -13.84,-5.04 -24.68,-10.66 -32.54,-16.83 -7.85,-6.17 -13.28,-12.99 -16.27,-20.57 -2.99,-7.48 -4.49,-15.89 -4.49,-25.24z"/>
   <path id="_20" class="fil6" d="M8863.2 7723.8l-41.51 0 -178.97 395.52 45.44 0 46.57 -103.79 213.75 0 46 103.79 47.69 0 -178.97 -395.52zm67.88 252.46l-178.96 0 89.76 -200.28 89.2 200.28zm3.37 -343.34l-26.37 -7.3c-4.11,9.91 -8.13,16.83 -12.06,20.85 -3.93,4.02 -9.63,6.08 -17.11,6.08 -4.86,0 -10.29,-1.12 -16.27,-3.27 -5.98,-2.25 -12.34,-4.68 -19.08,-7.39 -6.73,-2.71 -13.46,-5.33 -20.19,-7.67 -6.73,-2.33 -13.28,-3.55 -19.64,-3.55 -13.46,0 -24.31,4.49 -32.54,13.47 -8.22,8.97 -15.14,24.12 -20.75,45.44l26.36 7.29c4.12,-9.91 8.14,-16.83 12.07,-20.85 3.92,-4.02 9.63,-6.08 17.11,-6.08 4.86,0 10.28,1.22 16.27,3.56 5.98,2.33 12.34,4.95 19.07,7.66 6.73,2.71 13.47,5.15 20.2,7.39 6.73,2.15 13.28,3.27 19.63,3.27 13.47,0 24.31,-4.49 32.54,-13.46 8.23,-8.98 15.15,-24.13 20.76,-45.44z"/>
   <path id="_21" class="fil6" d="M9502.77 7922.4c0,-27.3 -4.77,-53.2 -14.31,-77.7 -9.54,-24.5 -23.09,-46 -40.67,-64.52 -17.58,-18.51 -38.62,-33.19 -63.12,-44.04 -24.49,-10.84 -51.7,-16.27 -81.63,-16.27 -29.92,0 -57.22,5.52 -81.9,16.55 -24.69,11.04 -45.82,25.9 -63.4,44.6 -17.58,18.71 -31.23,40.3 -40.95,64.8 -9.73,24.5 -14.59,50.4 -14.59,77.7 0,27.31 4.77,53.21 14.31,77.71 9.53,24.49 23.09,46 40.67,64.51 17.58,18.52 38.62,33.2 63.11,44.04 24.5,10.85 51.71,16.27 81.63,16.27 29.92,0 57.23,-5.51 81.91,-16.55 24.69,-11.03 45.82,-25.9 63.4,-44.6 17.58,-18.7 31.23,-40.3 40.95,-64.8 9.73,-24.49 14.59,-50.4 14.59,-77.7zm-46.01 1.12c0,22.44 -3.83,43.48 -11.5,63.12 -7.66,19.63 -18.23,36.75 -31.69,51.33 -13.47,14.59 -29.65,26.09 -48.53,34.5 -18.89,8.42 -39.55,12.63 -62,12.63 -22.44,0 -43.1,-4.3 -61.99,-12.91 -18.89,-8.6 -35.25,-20.19 -49.09,-34.78 -13.84,-14.59 -24.59,-31.79 -32.26,-51.61 -7.66,-19.83 -11.5,-40.96 -11.5,-63.4 0,-22.44 3.84,-43.48 11.5,-63.11 7.67,-19.64 18.24,-36.75 31.7,-51.34 13.47,-14.58 29.64,-26.08 48.53,-34.5 18.89,-8.41 39.55,-12.62 61.99,-12.62 22.44,0 43.11,4.3 62,12.9 18.88,8.6 35.25,20.2 49.08,34.78 13.84,14.59 24.6,31.8 32.26,51.62 7.67,19.82 11.5,40.95 11.5,63.39z"/>
   <polygon id="_22" class="fil6" points="10048.65,7726.61 9764.77,7726.61 9764.77,8119.32 10051.45,8119.32 10051.45,8078.93 9809.09,8078.93 9809.09,7941.48 10023.4,7941.48 10023.4,7901.08 9809.09,7901.08 9809.09,7767 10048.65,7767 "/>
   <polygon id="_23" class="fil6" points="10472.21,7801.22 10472.21,8119.32 10516.53,8119.32 10516.53,7726.61 10471.65,7726.61 10328.59,7940.92 10185.53,7726.61 10140.65,7726.61 10140.65,8119.32 10183.85,8119.32 10183.85,7801.78 10326.91,8011.6 10329.15,8011.6 "/>
   <path id="_24" class="fil6" d="M11120.76 8119.32l-120.62 -160.36c15.34,-2.62 29.55,-7.1 42.64,-13.46 13.09,-6.36 24.4,-14.31 33.94,-23.85 9.54,-9.53 16.93,-20.75 22.16,-33.66 5.24,-12.9 7.86,-27.58 7.86,-44.04 0,-17.58 -3.37,-33.66 -10.1,-48.06 -6.73,-14.4 -16.27,-26.74 -28.61,-37.03 -12.35,-10.28 -27.21,-18.23 -44.61,-23.84 -17.39,-5.61 -36.93,-8.41 -58.62,-8.41l-168.87 0 0 392.71 44.32 0 0 -152.6 112.21 0 113.88 152.6 54.42 0zm-58.34 -273.5c0,12.72 -2.53,24.22 -7.58,34.32 -5.05,10.19 -12.06,18.7 -21.13,25.62 -8.98,6.92 -19.64,12.34 -32.07,16.08 -12.34,3.74 -25.81,5.61 -40.49,5.61l-120.9 0 0 -159.89 121.46 0c31.89,0 56.67,6.83 74.24,20.57 17.68,13.65 26.47,32.91 26.47,57.69z"/>
   <polygon id="_25" class="fil6" points="11485.43,7726.61 11201.55,7726.61 11201.55,8119.32 11488.23,8119.32 11488.23,8078.93 11245.87,8078.93 11245.87,7941.48 11460.18,7941.48 11460.18,7901.08 11245.87,7901.08 11245.87,7767 11485.43,7767 "/>
   <path id="_26" class="fil6" d="M11764.25 7723.8l-41.51 0 -178.97 395.52 45.44 0 46.57 -103.79 213.75 0 46 103.79 47.69 0 -178.97 -395.52zm67.88 252.46l-178.96 0 89.76 -200.28 89.2 200.28z"/>
   <polygon id="_27" class="fil6" points="12020.64,8119.32 12286,8119.32 12286,8078.37 12064.96,8078.37 12064.96,7726.61 12020.64,7726.61 "/>
   <polygon id="_28" class="fil6" points="12371.84,7726.61 12371.84,8119.32 12416.16,8119.32 12416.16,7726.61 "/>
   <path id="_29" class="fil6" d="M12876.2 7922.4c0,-27.68 -5.05,-53.48 -15.15,-77.42 -10.1,-23.94 -24.4,-44.69 -42.92,-62.27 -18.51,-17.58 -40.58,-31.33 -66.2,-41.24 -25.62,-9.91 -53.76,-14.86 -84.43,-14.86l-136.33 0 0 392.71 136.33 0c30.67,0 58.81,-5.05 84.43,-15.15 25.62,-10.1 47.69,-23.93 66.2,-41.51 18.52,-17.58 32.82,-38.43 42.92,-62.56 10.1,-24.12 15.15,-50.02 15.15,-77.7zm-46.01 1.12c0,22.07 -3.83,42.45 -11.5,61.16 -7.66,18.7 -18.51,35.06 -32.54,49.08 -14.02,14.03 -31.13,24.97 -51.33,32.82 -20.2,7.86 -42.64,11.79 -67.32,11.79l-92.01 0 0 -310.81 92.01 0c24.68,0 47.12,4.02 67.32,12.06 20.2,8.04 37.31,19.08 51.33,33.1 14.03,14.03 24.88,30.58 32.54,49.65 7.67,19.08 11.5,39.46 11.5,61.15z"/>
   <path id="_30" class="fil6" d="M13130.9 7723.8l-41.51 0 -178.97 395.52 45.44 0 46.57 -103.79 213.75 0 46 103.79 47.69 0 -178.97 -395.52zm67.88 252.46l-178.96 0 89.76 -200.28 89.2 200.28z"/>
   <path id="_31" class="fil6" d="M13732.32 7922.4c0,-27.68 -5.05,-53.48 -15.15,-77.42 -10.1,-23.94 -24.4,-44.69 -42.92,-62.27 -18.51,-17.58 -40.58,-31.33 -66.2,-41.24 -25.62,-9.91 -53.76,-14.86 -84.43,-14.86l-136.33 0 0 392.71 136.33 0c30.67,0 58.81,-5.05 84.43,-15.15 25.62,-10.1 47.69,-23.93 66.2,-41.51 18.52,-17.58 32.82,-38.43 42.92,-62.56 10.1,-24.12 15.15,-50.02 15.15,-77.7zm-46.01 1.12c0,22.07 -3.83,42.45 -11.5,61.16 -7.66,18.7 -18.51,35.06 -32.54,49.08 -14.02,14.03 -31.13,24.97 -51.33,32.82 -20.2,7.86 -42.64,11.79 -67.32,11.79l-92.01 0 0 -310.81 92.01 0c24.68,0 47.12,4.02 67.32,12.06 20.2,8.04 37.31,19.08 51.33,33.1 14.03,14.03 24.88,30.58 32.54,49.65 7.67,19.08 11.5,39.46 11.5,61.15z"/>
   <polygon id="_32" class="fil6" points="14109.89,7726.61 13826.01,7726.61 13826.01,8119.32 14112.69,8119.32 14112.69,8078.93 13870.33,8078.93 13870.33,7941.48 14084.64,7941.48 14084.64,7901.08 13870.33,7901.08 13870.33,7767 14109.89,7767 "/>
   <path id="_33" class="fil6" d="M14710.18 8066.21l0 -156.15 -162.14 0 0 39.27 119.5 0 0 97.99c-13.46,10.94 -30.11,20.2 -49.93,27.87 -19.82,7.76 -40.95,11.59 -63.39,11.59 -23.94,0 -45.45,-4.11 -64.52,-12.34 -19.08,-8.23 -35.35,-19.73 -48.81,-34.32 -13.46,-14.58 -23.84,-31.88 -31.14,-51.99 -7.29,-20 -10.94,-41.88 -10.94,-65.45 0,-22.06 3.74,-43.01 11.22,-62.64 7.48,-19.73 17.77,-36.85 30.86,-51.43 13.09,-14.59 28.8,-26.28 47.13,-34.88 18.32,-8.6 38.33,-12.9 60.02,-12.9 13.84,0 26.47,1.12 37.87,3.36 11.41,2.25 21.88,5.33 31.42,9.26 9.54,3.93 18.42,8.6 26.65,14.03 8.23,5.42 16.08,11.5 23.56,18.23l28.61 -33.66c-9.72,-8.23 -19.73,-15.62 -30.01,-22.16 -10.29,-6.55 -21.32,-12.06 -33.1,-16.55 -11.78,-4.49 -24.5,-7.86 -38.15,-10.1 -13.65,-2.24 -28.71,-3.37 -45.16,-3.37 -29.55,0 -56.39,5.52 -80.51,16.55 -24.12,11.04 -44.79,25.9 -61.99,44.6 -17.21,18.71 -30.58,40.4 -40.11,65.08 -9.54,24.69 -14.31,50.5 -14.31,77.42 0,28.06 4.58,54.42 13.74,79.11 9.17,24.68 22.45,46.19 39.84,64.52 17.39,18.32 38.33,32.72 62.83,43.19 24.5,10.48 52.27,15.71 83.31,15.71 33.29,0 63.3,-5.89 90.05,-17.67 26.74,-11.69 49.27,-25.81 67.6,-42.17z"/>
   <path id="_34" class="fil6" d="M15134.87 8119.32l-120.62 -160.36c15.34,-2.62 29.55,-7.1 42.64,-13.46 13.09,-6.36 24.4,-14.31 33.94,-23.85 9.54,-9.53 16.93,-20.75 22.16,-33.66 5.24,-12.9 7.86,-27.58 7.86,-44.04 0,-17.58 -3.37,-33.66 -10.1,-48.06 -6.73,-14.4 -16.27,-26.74 -28.61,-37.03 -12.35,-10.28 -27.21,-18.23 -44.61,-23.84 -17.39,-5.61 -36.93,-8.41 -58.62,-8.41l-168.87 0 0 392.71 44.32 0 0 -152.6 112.21 0 113.88 152.6 54.42 0zm-58.34 -273.5c0,12.72 -2.53,24.22 -7.58,34.32 -5.05,10.19 -12.06,18.7 -21.13,25.62 -8.98,6.92 -19.64,12.34 -32.07,16.08 -12.34,3.74 -25.81,5.61 -40.49,5.61l-120.9 0 0 -159.89 121.46 0c31.89,0 56.67,6.83 74.24,20.57 17.68,13.65 26.47,32.91 26.47,57.69z"/>
   <path id="_35" class="fil6" d="M15402.48 7723.8l-41.51 0 -178.97 395.52 45.44 0 46.57 -103.79 213.75 0 46 103.79 47.69 0 -178.97 -395.52zm67.88 252.46l-178.96 0 89.76 -200.28 89.2 200.28zm-70.68 -284.44l63.39 -60.59 -44.88 -20.76 -53.3 81.35 34.79 0z"/>
   <polygon id="_36" class="fil6" points="15941.06,7726.61 15658.87,7726.61 15658.87,8119.32 15703.19,8119.32 15703.19,7948.21 15915.82,7948.21 15915.82,7907.82 15703.19,7907.82 15703.19,7767.56 15941.06,7767.56 "/>
   <polygon id="_37" class="fil6" points="16030.83,7726.61 16030.83,8119.32 16075.15,8119.32 16075.15,7726.61 "/>
   <path id="_38" class="fil6" d="M16526.77 8057.05l-29.17 -28.62c-18.7,17.96 -37.78,31.89 -57.22,41.8 -19.45,9.91 -42.64,14.87 -69.57,14.87 -21.69,0 -41.8,-4.21 -60.31,-12.63 -18.51,-8.41 -34.6,-19.91 -48.25,-34.5 -13.65,-14.58 -24.31,-31.79 -31.98,-51.61 -7.66,-19.82 -11.5,-41.14 -11.5,-63.96 0,-22.81 3.84,-44.04 11.5,-63.67 7.67,-19.64 18.33,-36.75 31.98,-51.34 13.65,-14.58 29.74,-25.99 48.25,-34.22 18.51,-8.23 38.62,-12.34 60.31,-12.34 26.93,0 50.02,5.05 69.29,15.15 19.26,10.09 37.3,23 54.13,38.71l30.3 -32.54c-9.73,-9.35 -19.82,-17.86 -30.3,-25.53 -10.47,-7.67 -21.88,-14.21 -34.22,-19.64 -12.34,-5.42 -25.71,-9.63 -40.11,-12.62 -14.4,-2.99 -30.58,-4.49 -48.53,-4.49 -28.8,0 -55.35,5.33 -79.66,15.99 -24.32,10.66 -45.26,25.25 -62.84,43.76 -17.58,18.52 -31.32,40.12 -41.23,64.8 -9.91,24.69 -14.87,51.05 -14.87,79.1 0,28.43 4.96,54.98 14.87,79.67 9.91,24.68 23.65,46.1 41.23,64.24 17.58,18.14 38.34,32.44 62.27,42.91 23.94,10.48 50.12,15.71 78.55,15.71 17.95,0 34.22,-1.68 48.81,-5.05 14.58,-3.36 28.23,-8.04 40.95,-14.02 12.72,-5.99 24.59,-13.19 35.63,-21.6 11.03,-8.42 21.59,-17.86 31.69,-28.33z"/>
   <path id="_39" class="fil6" d="M16791.01 7723.8l-41.51 0 -178.97 395.52 45.44 0 46.57 -103.79 213.75 0 46 103.79 47.69 0 -178.97 -395.52zm67.88 252.46l-178.96 0 89.76 -200.28 89.2 200.28z"/>
   <path id="_40" class="fil6" d="M17042.91 7726.61l0 31.97 12.91 249.66 24.12 0 13.46 -249.66 0 -31.97 -50.49 0zm51.06 392.71l0 -58.91 -51.62 0 0 58.91 51.62 0z"/>
  </g>
 </g>
</svg>
